<svg width="111" height="32" viewBox="0 0 111 32" fill="none" xmlns="http://www.w3.org/2000/svg">
<g clip-path="url(#clip0_1_5326)">
<path d="M110.383 28.3095C110.383 30.0148 108.97 31.3962 107.222 31.3962H3.78167C2.03469 31.3962 0.616667 30.0148 0.616667 28.3095V3.69442C0.616667 1.98991 2.03469 0.603729 3.78167 0.603729H107.222C108.97 0.603729 110.383 1.98991 110.383 3.69442L110.383 28.3095Z" fill="#212835"/>
<path d="M106.889 0.64097C108.792 0.64097 110.341 2.14797 110.341 3.99997V28C110.341 29.852 108.792 31.359 106.889 31.359H4.11111C2.20767 31.359 0.658805 29.852 0.658805 28V3.99997C0.658805 2.14797 2.20767 0.64097 4.11111 0.64097H106.889ZM106.889 -2.86102e-05H4.11111C1.85103 -2.86102e-05 0 1.80097 0 3.99997V28C0 30.199 1.85103 32 4.11111 32H106.889C109.149 32 111 30.199 111 28V3.99997C111 1.80097 109.149 -2.86102e-05 106.889 -2.86102e-05Z" fill="#0B1524" fill-opacity="0.14"/>
<path d="M24.7719 15.8271C24.7481 13.2487 26.9418 11.9943 27.0421 11.9359C25.7997 10.1735 23.8741 9.93274 23.1974 9.91354C21.5801 9.74794 20.0113 10.8551 19.1874 10.8551C18.3471 10.8551 17.0784 9.92954 15.711 9.95674C13.9515 9.98314 12.3054 10.9743 11.4026 12.5135C9.53945 15.6519 10.929 20.2639 12.714 22.8007C13.607 24.0431 14.6504 25.4303 16.0161 25.3815C17.3522 25.3279 17.8513 24.5527 19.4637 24.5527C21.0612 24.5527 21.5299 25.3815 22.9228 25.3503C24.3567 25.3279 25.2595 24.1023 26.1212 22.8487C27.1531 21.4247 27.5675 20.0223 27.5839 19.9503C27.5502 19.9391 24.7991 18.9175 24.7719 15.8271Z" fill="white"/>
<path d="M22.1408 8.24474C22.8594 7.37034 23.3511 6.18074 23.2146 4.97354C22.1745 5.01834 20.8738 5.67354 20.1247 6.52874C19.462 7.28234 18.87 8.51754 19.023 9.67914C20.1913 9.76394 21.391 9.10554 22.1408 8.24474Z" fill="white"/>
<path d="M44.1081 25.2032H42.2408L41.218 22.076H37.6627L36.6884 25.2032H34.8704L38.3928 14.5568H40.5684L44.1081 25.2032ZM40.9096 20.764L39.9846 17.984C39.8868 17.7 39.7034 17.0312 39.4329 15.9784H39.4C39.2923 16.4312 39.1188 17.1 38.8804 17.984L37.9718 20.764H40.9096Z" fill="white"/>
<path d="M53.1665 21.2704C53.1665 22.576 52.8039 23.608 52.0787 24.3656C51.4292 25.04 50.6226 25.3768 49.6597 25.3768C48.6205 25.3768 47.8739 25.0136 47.4192 24.2872H47.3863V28.3312H45.6333V20.0536C45.6333 19.2328 45.6111 18.3904 45.5684 17.5264H47.11L47.2079 18.7432H47.2408C47.8254 17.8264 48.7125 17.3688 49.9031 17.3688C50.8339 17.3688 51.6109 17.7264 52.2325 18.4424C52.8557 19.1592 53.1665 20.1016 53.1665 21.2704ZM51.3807 21.3328C51.3807 20.5856 51.208 19.9696 50.861 19.4848C50.482 18.9792 49.973 18.7264 49.335 18.7264C48.9025 18.7264 48.5095 18.8672 48.1584 19.1448C47.8065 19.4248 47.5762 19.7904 47.4685 20.2432C47.4143 20.4544 47.3871 20.6272 47.3871 20.7632V22.0432C47.3871 22.6016 47.5631 23.0728 47.915 23.4576C48.2669 23.8424 48.7241 24.0344 49.2865 24.0344C49.9467 24.0344 50.4606 23.7864 50.8281 23.292C51.1965 22.7968 51.3807 22.144 51.3807 21.3328Z" fill="white"/>
<path d="M62.2414 21.2704C62.2414 22.576 61.8788 23.608 61.1527 24.3656C60.504 25.04 59.6974 25.3768 58.7346 25.3768C57.6953 25.3768 56.9487 25.0136 56.4948 24.2872H56.462V28.3312H54.709V20.0536C54.709 19.2328 54.6868 18.3904 54.644 17.5264H56.1857L56.2835 18.7432H56.3164C56.9002 17.8264 57.7874 17.3688 58.9788 17.3688C59.9087 17.3688 60.6857 17.7264 61.309 18.4424C61.9297 19.1592 62.2414 20.1016 62.2414 21.2704ZM60.4555 21.3328C60.4555 20.5856 60.282 19.9696 59.935 19.4848C59.556 18.9792 59.0487 18.7264 58.4098 18.7264C57.9765 18.7264 57.5843 18.8672 57.2324 19.1448C56.8805 19.4248 56.6511 19.7904 56.5434 20.2432C56.4899 20.4544 56.462 20.6272 56.462 20.7632V22.0432C56.462 22.6016 56.6379 23.0728 56.9882 23.4576C57.3401 23.8416 57.7973 24.0344 58.3613 24.0344C59.0215 24.0344 59.5354 23.7864 59.903 23.292C60.2713 22.7968 60.4555 22.144 60.4555 21.3328Z" fill="white"/>
<path d="M72.3876 22.2176C72.3876 23.1232 72.0645 23.86 71.4158 24.4288C70.7029 25.0504 69.7105 25.3608 68.4352 25.3608C67.2578 25.3608 66.3139 25.14 65.5993 24.6976L66.0055 23.276C66.7751 23.7288 67.6196 23.956 68.5396 23.956C69.1999 23.956 69.7138 23.8104 70.0829 23.5208C70.4505 23.2312 70.6338 22.8424 70.6338 22.3576C70.6338 21.9256 70.4825 21.5616 70.1791 21.2664C69.8774 20.9712 69.3733 20.6968 68.6695 20.4432C66.7538 19.748 65.7967 18.7296 65.7967 17.3904C65.7967 16.5152 66.1322 15.7976 66.8039 15.2392C67.4732 14.68 68.3661 14.4008 69.4827 14.4008C70.4784 14.4008 71.3056 14.5696 71.9658 14.9064L71.5276 16.2968C70.9109 15.9704 70.2137 15.8072 69.4334 15.8072C68.8167 15.8072 68.3349 15.9552 67.9896 16.2496C67.6977 16.5128 67.5513 16.8336 67.5513 17.2136C67.5513 17.6344 67.7182 17.9824 68.0537 18.256C68.3456 18.5088 68.8759 18.7824 69.6455 19.0776C70.587 19.4464 71.2784 19.8776 71.7233 20.372C72.1664 20.8648 72.3876 21.4816 72.3876 22.2176Z" fill="white"/>
<path d="M78.1834 18.8065H76.2512V22.5337C76.2512 23.4817 76.5916 23.9553 77.2741 23.9553C77.5873 23.9553 77.8471 23.9289 78.0527 23.8761L78.1012 25.1713C77.7559 25.2969 77.3012 25.3601 76.738 25.3601C76.0457 25.3601 75.5046 25.1545 75.1141 24.7441C74.7252 24.3329 74.5295 23.6433 74.5295 22.6745V18.8049H73.3784V17.5249H74.5295V16.1193L76.2512 15.6137V17.5249H78.1834V18.8065Z" fill="white"/>
<path d="M86.9015 21.3016C86.9015 22.4816 86.5545 23.4504 85.8622 24.208C85.1361 24.988 84.1725 25.3768 82.9712 25.3768C81.8136 25.3768 80.8918 25.0032 80.2045 24.256C79.5171 23.5088 79.1734 22.5656 79.1734 21.4288C79.1734 20.2392 79.5269 19.2648 80.2365 18.5072C80.9445 17.7488 81.8999 17.3696 83.1011 17.3696C84.2588 17.3696 85.1904 17.7432 85.8934 18.4912C86.566 19.2168 86.9015 20.1536 86.9015 21.3016ZM85.0827 21.3568C85.0827 20.6488 84.9273 20.0416 84.6124 19.5352C84.2449 18.9224 83.7195 18.6168 83.0387 18.6168C82.334 18.6168 81.7987 18.9232 81.4312 19.5352C81.1163 20.0424 80.9609 20.6592 80.9609 21.3888C80.9609 22.0968 81.1163 22.704 81.4312 23.2096C81.8103 23.8224 82.3398 24.128 83.023 24.128C83.6923 24.128 84.2177 23.816 84.5968 23.1936C84.9199 22.6776 85.0827 22.064 85.0827 21.3568Z" fill="white"/>
<path d="M92.5995 19.0264C92.426 18.9952 92.241 18.9792 92.0469 18.9792C91.4303 18.9792 90.9534 19.2056 90.6179 19.6592C90.326 20.0592 90.1796 20.5648 90.1796 21.1752V25.2032H88.4275L88.4439 19.944C88.4439 19.0592 88.4217 18.2536 88.3782 17.5272H89.905L89.9692 18.996H90.0177C90.2027 18.4912 90.4946 18.0848 90.8942 17.78C91.2847 17.5056 91.7065 17.3688 92.1612 17.3688C92.3232 17.3688 92.4695 17.38 92.5995 17.4V19.0264Z" fill="white"/>
<path d="M100.439 21.0016C100.439 21.3072 100.419 21.5648 100.375 21.7752H95.1163C95.1368 22.5336 95.3909 23.1136 95.8793 23.5136C96.3225 23.8712 96.8955 24.0504 97.5994 24.0504C98.378 24.0504 99.0884 23.9296 99.7273 23.6872L100.002 24.8712C99.2553 25.188 98.3739 25.3456 97.3568 25.3456C96.1333 25.3456 95.173 24.9952 94.4741 24.2952C93.7769 23.5952 93.4274 22.6552 93.4274 21.476C93.4274 20.3184 93.7522 19.3544 94.4026 18.5856C95.0834 17.7648 96.0034 17.3544 97.1611 17.3544C98.2983 17.3544 99.1591 17.7648 99.7437 18.5856C100.207 19.2376 100.439 20.044 100.439 21.0016ZM98.7677 20.5592C98.7793 20.0536 98.665 19.6168 98.4273 19.248C98.1239 18.7736 97.6577 18.5368 97.0304 18.5368C96.4573 18.5368 95.9911 18.768 95.6351 19.232C95.3432 19.6008 95.1697 20.0432 95.1163 20.5584H98.7677V20.5592Z" fill="white"/>
<path d="M40.33 8.00721C40.33 8.94881 40.0398 9.65761 39.4601 10.1336C38.9232 10.5728 38.1602 10.7928 37.1719 10.7928C36.6818 10.7928 36.2625 10.772 35.9114 10.7304V5.58561C36.3694 5.51361 36.8627 5.47681 37.3955 5.47681C38.337 5.47681 39.0465 5.67601 39.5251 6.07441C40.0612 6.52481 40.33 7.16881 40.33 8.00721ZM39.4215 8.03041C39.4215 7.42001 39.2554 6.95201 38.9232 6.62561C38.591 6.30001 38.1059 6.13681 37.467 6.13681C37.1957 6.13681 36.9647 6.15441 36.7731 6.19121V10.1024C36.8792 10.1184 37.0732 10.1256 37.3552 10.1256C38.0146 10.1256 38.5236 9.94721 38.8821 9.59041C39.2406 9.23361 39.4215 8.71361 39.4215 8.03041Z" fill="white"/>
<path d="M45.1474 8.82951C45.1474 9.40951 44.9772 9.88471 44.6368 10.2575C44.28 10.6407 43.8072 10.8319 43.2169 10.8319C42.6479 10.8319 42.1948 10.6487 41.8569 10.2807C41.5198 9.91351 41.3512 9.45031 41.3512 8.89191C41.3512 8.30791 41.5247 7.82872 41.8733 7.45672C42.222 7.08472 42.6906 6.89832 43.281 6.89832C43.85 6.89832 44.3071 7.08152 44.6533 7.44872C44.9822 7.80552 45.1474 8.26631 45.1474 8.82951ZM44.2537 8.85671C44.2537 8.50872 44.1764 8.21031 44.0226 7.96151C43.8417 7.66071 43.5844 7.51031 43.2497 7.51031C42.9036 7.51031 42.6405 7.66071 42.4596 7.96151C42.305 8.21031 42.2285 8.51352 42.2285 8.87191C42.2285 9.21991 42.3058 9.51831 42.4596 9.76711C42.6462 10.0679 42.9061 10.2183 43.2415 10.2183C43.5704 10.2183 43.8286 10.0655 44.0144 9.75911C44.1739 9.50552 44.2537 9.20472 44.2537 8.85671Z" fill="white"/>
<path d="M51.6068 6.97525L50.394 10.7465H49.6047L49.1023 9.10885C48.9749 8.70005 48.8713 8.29365 48.7907 7.89045H48.7751C48.7002 8.30485 48.5966 8.71045 48.4634 9.10885L47.9298 10.7465H47.1314L45.991 6.97525H46.8766L47.3148 8.76805C47.4209 9.19205 47.508 9.59605 47.5779 9.97845H47.5935C47.6577 9.66325 47.7637 9.26165 47.9134 8.77605L48.4634 6.97605H49.1656L49.6927 8.73765C49.8201 9.16725 49.9237 9.58085 50.0035 9.97925H50.0273C50.0857 9.59125 50.1737 9.17765 50.2904 8.73765L50.7607 6.97605H51.6068V6.97525Z" fill="white"/>
<path d="M56.0739 10.7465H55.2123V8.58646C55.2123 7.92086 54.9524 7.58806 54.4312 7.58806C54.1754 7.58806 53.9691 7.67926 53.8087 7.86246C53.65 8.04566 53.5695 8.26166 53.5695 8.50886V10.7457H52.7078V8.05286C52.7078 7.72166 52.6971 7.36246 52.6765 6.97366H53.4338L53.4741 7.56326H53.4979C53.5982 7.38006 53.7479 7.22886 53.9444 7.10806C54.1779 6.96726 54.4394 6.89606 54.7255 6.89606C55.0873 6.89606 55.3882 7.00966 55.6275 7.23766C55.9251 7.51686 56.0739 7.93366 56.0739 8.48726V10.7465Z" fill="white"/>
<path d="M58.4501 10.7464H57.5893V5.24481H58.4501V10.7464Z" fill="white"/>
<path d="M63.5233 8.82951C63.5233 9.40951 63.3531 9.88471 63.0127 10.2575C62.6558 10.6407 62.1822 10.8319 61.5927 10.8319C61.0229 10.8319 60.5698 10.6487 60.2327 10.2807C59.8956 9.91351 59.7271 9.45031 59.7271 8.89191C59.7271 8.30791 59.9006 7.82872 60.2492 7.45672C60.5978 7.08472 61.0665 6.89832 61.656 6.89832C62.2258 6.89832 62.6821 7.08152 63.0291 7.44872C63.358 7.80552 63.5233 8.26631 63.5233 8.82951ZM62.6287 8.85671C62.6287 8.50872 62.5514 8.21031 62.3976 7.96151C62.2176 7.66071 61.9594 7.51031 61.6256 7.51031C61.2786 7.51031 61.0155 7.66071 60.8354 7.96151C60.6808 8.21031 60.6044 8.51352 60.6044 8.87191C60.6044 9.21991 60.6817 9.51831 60.8354 9.76711C61.0221 10.0679 61.2819 10.2183 61.6174 10.2183C61.9462 10.2183 62.2036 10.0655 62.3894 9.75911C62.5498 9.50552 62.6287 9.20472 62.6287 8.85671Z" fill="white"/>
<path d="M67.6936 10.7463H66.9199L66.8557 10.3119H66.8319C66.5671 10.6583 66.1897 10.8319 65.6997 10.8319C65.3338 10.8319 65.0378 10.7175 64.815 10.4903C64.6127 10.2839 64.5116 10.0271 64.5116 9.72231C64.5116 9.26151 64.7089 8.91031 65.106 8.66711C65.5023 8.42391 66.0598 8.30471 66.7776 8.31031V8.23992C66.7776 7.74312 66.5096 7.49512 65.9727 7.49512C65.5903 7.49512 65.2532 7.58872 64.9622 7.77432L64.787 7.22392C65.1471 7.00712 65.592 6.89832 66.1166 6.89832C67.1295 6.89832 67.6377 7.41832 67.6377 8.45831V9.84711C67.6377 10.2239 67.6566 10.5239 67.6936 10.7463ZM66.799 9.45031V8.86872C65.8485 8.85272 65.3733 9.10632 65.3733 9.62872C65.3733 9.82551 65.4275 9.97271 65.5385 10.0711C65.6495 10.1695 65.791 10.2183 65.9595 10.2183C66.1486 10.2183 66.3254 10.1599 66.4865 10.0439C66.6485 9.92711 66.748 9.77911 66.785 9.59751C66.7941 9.55671 66.799 9.50711 66.799 9.45031Z" fill="white"/>
<path d="M72.5899 10.7464H71.8253L71.785 10.1408H71.7611C71.5169 10.6016 71.1009 10.832 70.5163 10.832C70.0493 10.832 69.6604 10.6536 69.352 10.2968C69.0437 9.94001 68.8899 9.47681 68.8899 8.90801C68.8899 8.29761 69.0568 7.80321 69.3923 7.42561C69.7171 7.07361 70.115 6.89761 70.5886 6.89761C71.1091 6.89761 71.4734 7.06801 71.6806 7.40961H71.697V5.24481H72.5595V9.73041C72.5595 10.0976 72.5694 10.436 72.5899 10.7464ZM71.697 9.15601V8.52721C71.697 8.41841 71.6888 8.33041 71.6731 8.26321C71.6246 8.06161 71.5202 7.89201 71.3615 7.75521C71.2012 7.61841 71.008 7.54961 70.7851 7.54961C70.4637 7.54961 70.2121 7.67361 70.0271 7.92241C69.8437 8.17121 69.7508 8.48881 69.7508 8.87681C69.7508 9.24961 69.8388 9.55201 70.0155 9.78481C70.2022 10.0328 70.4538 10.1568 70.7687 10.1568C71.0515 10.1568 71.2777 10.0536 71.4495 9.84641C71.6156 9.65521 71.697 9.42481 71.697 9.15601Z" fill="white"/>
<path d="M79.9595 8.82951C79.9595 9.40951 79.7893 9.88471 79.4489 10.2575C79.0921 10.6407 78.6201 10.8319 78.0289 10.8319C77.4608 10.8319 77.0077 10.6487 76.669 10.2807C76.3319 9.91351 76.1633 9.45031 76.1633 8.89191C76.1633 8.30791 76.3368 7.82872 76.6854 7.45672C77.034 7.08472 77.5027 6.89832 78.0939 6.89832C78.662 6.89832 79.12 7.08152 79.4654 7.44872C79.7942 7.80552 79.9595 8.26631 79.9595 8.82951ZM79.0666 8.85671C79.0666 8.50872 78.9893 8.21031 78.8355 7.96151C78.6538 7.66071 78.3973 7.51031 78.0618 7.51031C77.7165 7.51031 77.4534 7.66071 77.2717 7.96151C77.1171 8.21031 77.0406 8.51352 77.0406 8.87191C77.0406 9.21991 77.1179 9.51831 77.2717 9.76711C77.4583 10.0679 77.7181 10.2183 78.0536 10.2183C78.3825 10.2183 78.6415 10.0655 78.8273 9.75911C78.986 9.50552 79.0666 9.20472 79.0666 8.85671Z" fill="white"/>
<path d="M84.5927 10.7465H83.7318V8.58646C83.7318 7.92086 83.472 7.58806 82.9499 7.58806C82.6942 7.58806 82.4878 7.67926 82.3283 7.86246C82.1688 8.04566 82.0891 8.26166 82.0891 8.50886V10.7457H81.2265V8.05286C81.2265 7.72166 81.2167 7.36246 81.1961 6.97366H81.9526L81.9929 7.56326H82.0167C82.1178 7.38006 82.2675 7.22886 82.4632 7.10806C82.6975 6.96726 82.9581 6.89606 83.2451 6.89606C83.6061 6.89606 83.907 7.00966 84.1462 7.23766C84.4447 7.51686 84.5927 7.93366 84.5927 8.48726V10.7465Z" fill="white"/>
<path d="M90.3918 7.60315H89.443V9.43515C89.443 9.90075 89.6116 10.1335 89.9454 10.1335C90.1 10.1335 90.2282 10.1207 90.3294 10.0943L90.3516 10.7304C90.1814 10.7928 89.9577 10.8239 89.6823 10.8239C89.3419 10.8239 89.0771 10.7232 88.8855 10.5216C88.6931 10.32 88.5978 9.98075 88.5978 9.50475V7.60315H88.0312V6.97515H88.5978V6.28395L89.4422 6.03595V6.97435H90.391V7.60315H90.3918Z" fill="white"/>
<path d="M94.9536 10.7464H94.091V8.60241C94.091 7.92641 93.8312 7.58801 93.3107 7.58801C92.9111 7.58801 92.6382 7.78401 92.4885 8.17601C92.463 8.25841 92.4482 8.35921 92.4482 8.47761V10.7456H91.5874V5.24481H92.4482V7.51761H92.4647C92.736 7.10401 93.1249 6.89761 93.629 6.89761C93.9858 6.89761 94.281 7.01121 94.5153 7.23921C94.8072 7.52321 94.9536 7.94561 94.9536 8.50401V10.7464Z" fill="white"/>
<path d="M99.6591 8.68243C99.6591 8.83283 99.6476 8.95923 99.627 9.06243H97.0428C97.0543 9.43523 97.1777 9.71924 97.4169 9.91603C97.6356 10.092 97.9176 10.18 98.263 10.18C98.6453 10.18 98.9939 10.1208 99.308 10.0016L99.4429 10.584C99.0753 10.7392 98.6428 10.8168 98.1421 10.8168C97.5419 10.8168 97.0691 10.6448 96.7271 10.3008C96.3834 9.95684 96.2132 9.49524 96.2132 8.91604C96.2132 8.34724 96.3719 7.87363 96.6917 7.49603C97.0255 7.09283 97.4769 6.89124 98.0467 6.89124C98.6042 6.89124 99.0276 7.09283 99.3138 7.49603C99.5448 7.81603 99.6591 8.21203 99.6591 8.68243ZM98.8369 8.46563C98.8435 8.21683 98.7867 8.00244 98.67 7.82164C98.5203 7.58884 98.2926 7.47204 97.9842 7.47204C97.703 7.47204 97.4736 7.58564 97.2985 7.81364C97.1554 7.99524 97.0708 8.21203 97.0428 8.46563H98.8369Z" fill="white"/>
</g>
<defs>
<clipPath id="clip0_1_5326">
<rect width="111" height="32" fill="white"/>
</clipPath>
</defs>
</svg>
