<svg width="18" height="18" viewBox="0 0 18 18" fill="none" xmlns="http://www.w3.org/2000/svg">
<path d="M7.82585 1.09416C8.57886 0.788863 9.42118 0.788863 10.1742 1.09416L16.4225 3.6275C16.6917 3.73651 16.9221 3.9234 17.0844 4.16421C17.2467 4.40501 17.3334 4.68878 17.3334 4.97916V13.0233C17.3332 13.3136 17.2464 13.5972 17.0842 13.8378C16.9219 14.0784 16.6915 14.2652 16.4225 14.3742L10.1742 16.9075C9.42118 17.2128 8.57886 17.2128 7.82585 16.9075L1.57752 14.3742C1.30838 14.2651 1.07791 14.0783 0.915643 13.8375C0.753372 13.5966 0.666685 13.3129 0.666687 13.0225V4.98C0.666685 4.68962 0.753372 4.40585 0.915643 4.16504C1.07791 3.92423 1.30838 3.73735 1.57752 3.62833L7.82585 1.095V1.09416ZM9.70419 2.2525C9.25258 2.0695 8.74746 2.0695 8.29585 2.2525L6.70002 2.9L12.9725 5.33916L15.1967 4.48083L9.70335 2.25333L9.70419 2.2525ZM11.2425 6.00666L5.01252 3.58333L2.82502 4.47L9.00085 6.87166L11.2425 6.00666ZM1.91669 13.0233C1.9168 13.0647 1.92922 13.1051 1.95237 13.1394C1.97552 13.1737 2.00835 13.2003 2.04669 13.2158L8.29585 15.7492C8.32169 15.76 8.34835 15.77 8.37502 15.7792V7.97L1.91669 5.45833V13.0233ZM9.70419 15.7492L15.9534 13.2158C15.9918 13.2002 16.0247 13.1735 16.0479 13.139C16.0711 13.1046 16.0834 13.064 16.0834 13.0225V5.47833L9.62502 7.97166V15.78C9.65164 15.7706 9.67803 15.7606 9.70419 15.75V15.7492Z" fill="#0B1524" fill-opacity="0.66"/>
</svg>
