<svg width="111" height="32" viewBox="0 0 111 32" fill="none" xmlns="http://www.w3.org/2000/svg">
<path d="M106.889 32H4.11111C1.85103 32 0 30.199 0 28V4C0 1.801 1.85103 1.90735e-06 4.11111 1.90735e-06H106.889C109.149 1.90735e-06 111 1.801 111 4V28C111 30.199 109.149 32 106.889 32Z" fill="#212835"/>
<path d="M106.889 0.641C108.792 0.641 110.341 2.148 110.341 4V28C110.341 29.852 108.792 31.359 106.889 31.359H4.11111C2.20767 31.359 0.658805 29.852 0.658805 28V4C0.658805 2.148 2.20767 0.641 4.11111 0.641H106.889ZM106.889 1.90735e-06H4.11111C1.85103 1.90735e-06 0 1.801 0 4V28C0 30.199 1.85103 32 4.11111 32H106.889C109.149 32 111 30.199 111 28V4C111 1.801 109.149 1.90735e-06 106.889 1.90735e-06Z" fill="#0B1524" fill-opacity="0.14"/>
<path d="M38.9877 8.19506C38.9877 8.86306 38.7822 9.39807 38.3772 9.79707C37.9116 10.2701 37.3052 10.5081 36.5622 10.5081C35.852 10.5081 35.2456 10.2661 34.7481 9.78906C34.2496 9.30506 34.0009 8.71106 34.0009 8.00006C34.0009 7.28907 34.2496 6.69507 34.7481 6.21507C35.2456 5.73407 35.852 5.49207 36.5622 5.49207C36.9157 5.49207 37.2528 5.56307 37.5745 5.69507C37.8952 5.82807 38.1562 6.00807 38.3453 6.23007L37.9157 6.65207C37.5858 6.27307 37.1367 6.08607 36.5622 6.08607C36.0442 6.08607 35.595 6.26207 35.2137 6.61707C34.8365 6.97306 34.6474 7.43407 34.6474 8.00006C34.6474 8.56606 34.8365 9.03106 35.2137 9.38706C35.595 9.73806 36.0442 9.91806 36.5622 9.91806C37.112 9.91806 37.5745 9.73806 37.9394 9.38306C38.1799 9.14806 38.3166 8.82406 38.3525 8.41006H36.5622V7.83206H38.9507C38.9795 7.95706 38.9877 8.07806 38.9877 8.19506Z" fill="white" stroke="white" stroke-width="0.0988025" stroke-miterlimit="10"/>
<path d="M42.7771 6.19096H40.5335V7.71096H42.5561V8.28896H40.5335V9.80896H42.7771V10.398H39.8983V5.60196H42.7771V6.19096Z" fill="white" stroke="white" stroke-width="0.0988025" stroke-miterlimit="10"/>
<path d="M45.4514 10.398H44.8162V6.19096H43.44V5.60196H46.8286V6.19096H45.4514V10.398Z" fill="white" stroke="white" stroke-width="0.0988025" stroke-miterlimit="10"/>
<path d="M49.2809 10.398V5.60196H49.9147V10.398H49.2809Z" fill="white" stroke="white" stroke-width="0.0988025" stroke-miterlimit="10"/>
<path d="M52.726 10.398H52.096V6.19096H50.7147V5.60196H54.1073V6.19096H52.726V10.398Z" fill="white" stroke="white" stroke-width="0.0988025" stroke-miterlimit="10"/>
<path d="M60.5228 9.78106C60.0366 10.2661 59.4343 10.5081 58.7159 10.5081C57.9934 10.5081 57.3911 10.2661 56.905 9.78106C56.4199 9.29706 56.1783 8.70306 56.1783 8.00006C56.1783 7.29707 56.4199 6.70307 56.905 6.21907C57.3911 5.73407 57.9934 5.49207 58.7159 5.49207C59.4302 5.49207 60.0325 5.73407 60.5187 6.22307C61.0079 6.71106 61.2494 7.30107 61.2494 8.00006C61.2494 8.70306 61.0079 9.29706 60.5228 9.78106ZM57.3747 9.37906C57.7406 9.73806 58.1856 9.91806 58.7159 9.91806C59.2421 9.91806 59.6913 9.73806 60.0531 9.37906C60.4179 9.02006 60.6029 8.55906 60.6029 8.00006C60.6029 7.44107 60.4179 6.98007 60.0531 6.62107C59.6913 6.26207 59.2421 6.08207 58.7159 6.08207C58.1856 6.08207 57.7406 6.26207 57.3747 6.62107C57.0098 6.98007 56.8248 7.44107 56.8248 8.00006C56.8248 8.55906 57.0098 9.02006 57.3747 9.37906Z" fill="white" stroke="white" stroke-width="0.0988025" stroke-miterlimit="10"/>
<path d="M62.1405 10.398V5.60196H62.9113L65.3081 9.33196H65.3358L65.3081 8.40996V5.60196H65.9422V10.398H65.2803L62.7705 6.48396H62.7427L62.7705 7.40996V10.398H62.1405Z" fill="white" stroke="white" stroke-width="0.0988025" stroke-miterlimit="10"/>
<path d="M56.0221 17.4021C54.0909 17.4021 52.5133 18.8321 52.5133 20.8051C52.5133 22.7621 54.0909 24.2071 56.0221 24.2071C57.9574 24.2071 59.535 22.7621 59.535 20.8051C59.535 18.8321 57.9574 17.4021 56.0221 17.4021ZM56.0221 22.8671C54.9625 22.8671 54.0508 22.0161 54.0508 20.8051C54.0508 19.5781 54.9625 18.7421 56.0221 18.7421C57.0817 18.7421 57.9975 19.5781 57.9975 20.8051C57.9975 22.0161 57.0817 22.8671 56.0221 22.8671ZM48.3662 17.4021C46.4309 17.4021 44.8573 18.8321 44.8573 20.8051C44.8573 22.7621 46.4309 24.2071 48.3662 24.2071C50.3005 24.2071 51.875 22.7621 51.875 20.8051C51.875 18.8321 50.3005 17.4021 48.3662 17.4021ZM48.3662 22.8671C47.3055 22.8671 46.3908 22.0161 46.3908 20.8051C46.3908 19.5781 47.3055 18.7421 48.3662 18.7421C49.4258 18.7421 50.3375 19.5781 50.3375 20.8051C50.3375 22.0161 49.4258 22.8671 48.3662 22.8671ZM39.256 18.4451V19.8911H42.8049C42.7011 20.6991 42.4236 21.2931 41.9981 21.7071C41.4801 22.2071 40.6733 22.7621 39.256 22.7621C37.0719 22.7621 35.3617 21.0471 35.3617 18.9221C35.3617 16.7971 37.0719 15.0821 39.256 15.0821C40.4369 15.0821 41.2961 15.5311 41.9302 16.1131L42.9775 15.0941C42.0906 14.2701 40.9107 13.6371 39.256 13.6371C36.261 13.6371 33.744 16.0081 33.744 18.9221C33.744 21.8361 36.261 24.2071 39.256 24.2071C40.8747 24.2071 42.0906 23.6911 43.0464 22.7231C44.0259 21.7701 44.3311 20.4301 44.3311 19.3481C44.3311 19.0121 44.3023 18.7031 44.251 18.4451H39.256ZM76.5088 19.5661C76.22 18.8051 75.3289 17.4021 73.5138 17.4021C71.7152 17.4021 70.2178 18.7811 70.2178 20.8051C70.2178 22.7111 71.6998 24.2071 73.6865 24.2071C75.2929 24.2071 76.22 23.2541 76.6013 22.6991L75.4091 21.9261C75.0113 22.4921 74.4697 22.8671 73.6865 22.8671C72.9085 22.8671 72.3504 22.5201 71.9927 21.8361L76.6701 19.9531L76.5088 19.5661ZM71.7399 20.6991C71.6998 19.3871 72.7872 18.7151 73.5663 18.7151C74.1768 18.7151 74.6948 19.0121 74.8674 19.4371L71.7399 20.6991ZM67.9381 24.0001H69.4757V14.0001H67.9381V24.0001ZM65.4201 18.1601H65.3687C65.0234 17.7621 64.3646 17.4021 63.53 17.4021C61.7787 17.4021 60.1774 18.8981 60.1774 20.8161C60.1774 22.7231 61.7787 24.2071 63.53 24.2071C64.3646 24.2071 65.0234 23.8441 65.3687 23.4341H65.4201V23.9221C65.4201 25.2231 64.7058 25.9221 63.5536 25.9221C62.6143 25.9221 62.0315 25.2621 61.791 24.7071L60.4539 25.2501C60.8393 26.1521 61.8599 27.2621 63.5536 27.2621C65.3564 27.2621 66.8775 26.2301 66.8775 23.7191V17.6091H65.4201V18.1601ZM63.6616 22.8671C62.6019 22.8671 61.7149 22.0041 61.7149 20.8161C61.7149 19.6171 62.6019 18.7421 63.6616 18.7421C64.7058 18.7421 65.529 19.6171 65.529 20.8161C65.529 22.0041 64.7058 22.8671 63.6616 22.8671ZM83.7073 14.0001H80.0299V24.0001H81.5634V20.2111H83.7073C85.4104 20.2111 87.0805 19.0121 87.0805 17.1051C87.0805 15.1991 85.4062 14.0001 83.7073 14.0001ZM83.7474 18.8201H81.5634V15.3911H83.7474C84.8924 15.3911 85.546 16.3161 85.546 17.1051C85.546 17.8791 84.8924 18.8201 83.7474 18.8201ZM93.2266 17.3831C92.1187 17.3831 90.9665 17.8591 90.4927 18.9141L91.8535 19.4691C92.1464 18.9141 92.685 18.7341 93.2544 18.7341C94.0499 18.7341 94.8567 19.1991 94.869 20.0201V20.1251C94.5915 19.9691 93.9974 19.7381 93.2667 19.7381C91.8011 19.7381 90.3077 20.5231 90.3077 21.9881C90.3077 23.3281 91.5082 24.1911 92.8576 24.1911C93.8895 24.1911 94.4589 23.7381 94.8166 23.2111H94.869V23.9841H96.35V20.1481C96.35 18.3751 94.9892 17.3831 93.2266 17.3831ZM93.0416 22.8631C92.54 22.8631 91.8412 22.6211 91.8412 22.0161C91.8412 21.2421 92.7127 20.9451 93.4671 20.9451C94.1424 20.9451 94.4589 21.0901 94.869 21.2811C94.7487 22.2071 93.9296 22.8631 93.0416 22.8631ZM101.746 17.6021L99.9832 21.9371H99.9308L98.1085 17.6021H96.4549L99.1929 23.6601L97.6306 27.0311H99.2329L103.452 17.6021H101.746ZM87.9233 24.0001H89.4608V14.0001H87.9233V24.0001Z" fill="white"/>
<path d="M8.57989 6.03101C8.33837 6.27701 8.19859 6.66001 8.19859 7.15601V24.848C8.19859 25.344 8.33837 25.727 8.57989 25.973L8.63951 26.027L18.8289 16.117V15.883L8.63951 5.97301L8.57989 6.03101Z" fill="url(#paint0_linear_1_5327)"/>
<path d="M22.2216 19.4221L18.8289 16.1171V15.8831L22.2257 12.5781L22.3017 12.6211L26.3244 14.8481C27.4725 15.4801 27.4725 16.5201 26.3244 17.1561L22.3017 19.3791L22.2216 19.4221Z" fill="url(#paint1_linear_1_5327)"/>
<path d="M22.3018 19.379L18.8289 16L8.5799 25.973C8.9612 26.363 9.58301 26.41 10.2901 26.02L22.3018 19.379Z" fill="url(#paint2_linear_1_5327)"/>
<path d="M22.3018 12.6209L10.2901 5.97994C9.58301 5.59394 8.9612 5.64094 8.5799 6.03094L18.8289 15.9999L22.3018 12.6209Z" fill="url(#paint3_linear_1_5327)"/>
<defs>
<linearGradient id="paint0_linear_1_5327" x1="17.9242" y1="25.0322" x2="4.50332" y2="11.2386" gradientUnits="userSpaceOnUse">
<stop stop-color="#00A0FF"/>
<stop offset="0.0066" stop-color="#00A1FF"/>
<stop offset="0.2601" stop-color="#00BEFF"/>
<stop offset="0.5122" stop-color="#00D2FF"/>
<stop offset="0.7604" stop-color="#00DFFF"/>
<stop offset="1" stop-color="#00E3FF"/>
</linearGradient>
<linearGradient id="paint1_linear_1_5327" x1="27.8194" y1="15.9989" x2="7.92415" y2="15.9989" gradientUnits="userSpaceOnUse">
<stop stop-color="#FFE000"/>
<stop offset="0.4087" stop-color="#FFBD00"/>
<stop offset="0.7754" stop-color="#FFA500"/>
<stop offset="1" stop-color="#FF9C00"/>
</linearGradient>
<linearGradient id="paint2_linear_1_5327" x1="20.4133" y1="14.1632" x2="2.21351" y2="-4.54219" gradientUnits="userSpaceOnUse">
<stop stop-color="#FF3A44"/>
<stop offset="1" stop-color="#C31162"/>
</linearGradient>
<linearGradient id="paint3_linear_1_5327" x1="6.00001" y1="31.859" x2="14.127" y2="23.5063" gradientUnits="userSpaceOnUse">
<stop stop-color="#32A071"/>
<stop offset="0.0685" stop-color="#2DA771"/>
<stop offset="0.4762" stop-color="#15CF74"/>
<stop offset="0.8009" stop-color="#06E775"/>
<stop offset="1" stop-color="#00F076"/>
</linearGradient>
</defs>
</svg>
