<svg width="164" height="40" viewBox="0 0 164 40" fill="none" xmlns="http://www.w3.org/2000/svg">
<path fill-rule="evenodd" clip-rule="evenodd" d="M58.0915 11.0985C55.8938 11.0985 54.0013 11.7445 52.4131 13.0365C50.8249 14.3287 49.741 16.1071 49.1618 18.3731C48.9619 19.2279 48.8518 19.725 48.8323 19.8637C48.732 20.4004 48.6824 21.0068 48.6824 21.6823C48.6824 23.4516 49.2016 24.813 50.2406 25.7669C51.2791 26.7209 52.7576 27.198 54.6753 27.198C56.0539 27.198 57.3169 26.9642 58.466 26.4972C59.6147 26.0305 60.5436 25.4789 61.2529 24.8426C61.9617 24.2067 62.3863 23.65 62.5264 23.1731C62.5663 22.9941 62.5363 22.8452 62.4365 22.7257C62.3364 22.6064 62.1968 22.5468 62.017 22.5468H59.3801C59.1404 22.5468 58.9605 22.572 58.8407 22.6213C58.7207 22.6712 58.5508 22.8053 58.3313 23.0238C57.4122 23.9383 56.3835 24.3951 55.2449 24.3951C54.4253 24.3951 53.8013 24.132 53.3721 23.6051C52.9422 23.0786 52.7278 22.3975 52.7278 21.5629C52.7278 21.2452 52.7578 20.9069 52.8176 20.5492L52.8775 20.3107H62.7963C63.0159 20.3107 63.2106 20.2413 63.3805 20.1021C63.5501 19.9633 63.6549 19.7941 63.6952 19.5953L63.845 18.9691C64.0047 18.1342 64.0848 17.3891 64.0848 16.7331C64.0848 14.9843 63.5801 13.6078 62.5716 12.6038C61.5626 11.6004 60.0693 11.0983 58.0917 11.0983L58.0915 11.0985ZM59.9793 17.7171V17.7769H53.4168V17.7171C53.6567 16.5447 54.1458 15.6055 54.8852 14.8998C55.6241 14.1946 56.5033 13.8414 57.5222 13.8414C58.3611 13.8414 59.0001 14.085 59.4399 14.5718C59.8792 15.0591 60.0991 15.7195 60.0991 16.5545C60.0991 16.9523 60.0588 17.3398 59.9793 17.7171ZM73.769 4.53936C73.5492 4.53936 73.3646 4.60943 73.2146 4.74813C73.0649 4.88731 72.9901 5.06626 72.9901 5.28482V6.80522C72.9901 7.02409 73.0597 7.19791 73.1997 7.32699C73.3393 7.45639 73.5188 7.52069 73.7391 7.52069C75.7169 7.60022 77.1403 8.00285 78.0092 8.7281C78.8781 9.45383 79.3127 10.5618 79.3127 12.0524C79.3127 12.6091 79.2528 13.2351 79.1328 13.9305C78.054 12.6984 76.6457 12.0821 74.9078 12.0821C72.6702 12.0821 70.8476 12.6636 69.4391 13.8262C68.0308 14.9888 67.0666 16.5942 66.5473 18.6411C66.3676 19.3171 66.2375 19.923 66.1578 20.4597C66.0779 20.8772 66.0381 21.3243 66.0381 21.8015C66.0381 23.471 66.5971 24.7881 67.7161 25.7518C68.8346 26.7161 70.4027 27.1978 72.4207 27.1978C74.7976 27.1978 76.7056 26.6068 78.144 25.4239C79.5823 24.2415 80.581 22.5869 81.1405 20.4599C81.54 19.1285 81.8097 17.9854 81.9496 17.0315C82.289 15.3022 82.4591 13.7918 82.4591 12.4996C82.4591 9.89607 81.7594 7.92845 80.3614 6.59661C78.9629 5.26509 76.7655 4.57945 73.7689 4.53936H73.769ZM77.4548 18.7903C77.3948 19.1285 77.2647 19.6355 77.0653 20.3109C76.7453 21.5831 76.2112 22.5469 75.4621 23.2029C74.7129 23.8587 73.799 24.1866 72.7202 24.1866C71.841 24.1866 71.1966 23.9734 70.7873 23.5457C70.3777 23.1184 70.1731 22.4677 70.1731 21.5929C70.1731 21.1558 70.2129 20.7283 70.293 20.3109C70.3725 19.8934 70.4923 19.3867 70.6525 18.7903C71.0317 17.5582 71.5713 16.634 72.2706 16.0178C72.9698 15.4019 73.8783 15.0935 74.9975 15.0935C75.8164 15.0935 76.4458 15.332 76.8852 15.809C77.3245 16.2859 77.5444 16.9419 77.5444 17.7768C77.5444 18.0949 77.5144 18.4326 77.4546 18.7903H77.4548ZM93.5161 11.0985C91.3185 11.0985 89.4259 11.7445 87.8377 13.0365C86.2494 14.3287 85.1658 16.1071 84.5864 18.3731C84.3865 19.2279 84.2764 19.725 84.2569 19.8637C84.1568 20.4004 84.1069 21.0068 84.1069 21.6823C84.1069 23.4516 84.6262 24.813 85.6652 25.7669C86.7037 26.7209 88.1823 27.198 90.1003 27.198C91.4786 27.198 92.7417 26.9642 93.8909 26.4972C95.0394 26.0305 95.9685 25.4789 96.6776 24.8426C97.3865 24.2067 97.8112 23.65 97.9512 23.1731C97.991 22.9941 97.961 22.8452 97.8612 22.7257C97.7611 22.6064 97.6217 22.5468 97.4417 22.5468H94.8048C94.5651 22.5468 94.3854 22.572 94.2654 22.6213C94.1456 22.6712 93.9756 22.8053 93.756 23.0238C92.8369 23.9383 91.8083 24.3951 90.6696 24.3951C89.8502 24.3951 89.226 24.132 88.7969 23.6051C88.3669 23.0786 88.1525 22.3975 88.1525 21.5629C88.1525 21.2452 88.1827 20.9069 88.2425 20.5492L88.3024 20.3107H98.221C98.4406 20.3107 98.6355 20.2413 98.8053 20.1021C98.9748 19.9633 99.0796 19.7941 99.1199 19.5953L99.2699 18.9691C99.4295 18.1342 99.5096 17.3891 99.5096 16.7331C99.5096 14.9843 99.0048 13.6078 97.9963 12.6038C96.9873 11.6004 95.4942 11.0983 93.5164 11.0983L93.5161 11.0985ZM95.4039 17.7171V17.7769H88.8415V17.7171C89.0812 16.5447 89.5705 15.6055 90.3098 14.8998C91.0487 14.1946 91.9279 13.8414 92.9467 13.8414C93.7857 13.8414 94.4249 14.085 94.8645 14.5718C95.3038 15.0591 95.5238 15.7195 95.5238 16.5545C95.5238 16.9523 95.4835 17.3398 95.4039 17.7171ZM120.539 11.5606C120.438 11.4517 120.309 11.3966 120.149 11.3966H117.452C117.093 11.3966 116.793 11.5658 116.553 11.9034L110.35 20.3111L107.414 11.9034C107.294 11.5658 107.064 11.3966 106.725 11.3966H104.297C104.137 11.3966 103.983 11.4564 103.833 11.5755C103.683 11.6948 103.598 11.8244 103.578 11.9631L100.522 26.2739C100.481 26.4528 100.511 26.6018 100.612 26.7211C100.711 26.8404 100.851 26.9 101.031 26.9H103.668C103.867 26.9 104.037 26.8404 104.177 26.7211C104.317 26.6019 104.407 26.4528 104.447 26.2739L106.305 17.5085L108.403 23.7992C108.482 24.0181 108.577 24.1919 108.687 24.321C108.797 24.4504 108.962 24.5147 109.182 24.5147H109.931C110.15 24.5147 110.335 24.4602 110.485 24.3507C110.635 24.2416 110.81 24.0576 111.01 23.7991L115.475 17.7468L113.647 26.2737C113.606 26.4527 113.636 26.6016 113.737 26.7209C113.836 26.8402 113.976 26.8999 114.156 26.8999H116.823C117.003 26.8999 117.167 26.8402 117.317 26.7209C117.467 26.6018 117.552 26.4527 117.572 26.2737L120.628 11.9629C120.668 11.8042 120.638 11.67 120.539 11.5605V11.5606ZM138.236 11.0987C136.078 11.0987 134.26 11.864 132.782 13.3942L133.082 12.0824C133.122 11.864 133.086 11.6948 132.977 11.5755C132.867 11.4564 132.712 11.3966 132.512 11.3966H131.254C131.034 11.3966 130.849 11.4615 130.699 11.5903C130.55 11.7198 130.464 11.8839 130.445 12.0822L126.765 29.3035C126.725 29.5219 126.755 29.691 126.855 29.8103C126.955 29.9296 127.105 29.9893 127.305 29.9893H128.653C128.853 29.9893 129.032 29.9245 129.193 29.7956C129.352 29.666 129.452 29.502 129.492 29.3036L130.415 24.9321C131.174 26.4429 132.633 27.198 134.79 27.198C136.888 27.198 138.596 26.5373 139.914 25.2153C141.233 23.8937 142.151 22.2091 142.671 20.1618C142.831 19.5857 142.981 18.9096 143.121 18.1344C143.24 17.4785 143.3 16.8428 143.3 16.2264C143.3 14.676 142.891 13.4343 142.072 12.4996C141.253 11.5656 139.974 11.0985 138.236 11.0985L138.236 11.0987ZM140.333 18.2838C140.253 18.7807 140.134 19.357 139.974 20.013C139.594 21.4641 138.98 22.6367 138.131 23.5311C137.282 24.4256 136.138 24.8728 134.7 24.8728C133.541 24.8728 132.682 24.5449 132.123 23.8889C131.563 23.2331 131.284 22.4182 131.284 21.4442C131.284 21.1065 131.314 20.7584 131.374 20.4007C131.434 20.0234 131.593 19.2483 131.853 18.0752C132.172 16.8035 132.787 15.7101 133.696 14.7956C134.605 13.8816 135.759 13.4243 137.157 13.4243C139.355 13.4243 140.453 14.5674 140.453 16.8529C140.453 17.3498 140.413 17.8268 140.333 18.284V18.2838ZM162.382 12.9322C161.303 11.9087 159.715 11.3967 157.617 11.3967H154.92C152.443 11.3967 150.435 12.0033 148.897 13.2154C147.359 14.4281 146.32 16.058 145.781 18.1049C145.561 19.099 145.411 19.7848 145.331 20.1621C145.271 20.5795 145.242 20.9773 145.242 21.3546C145.242 23.0046 145.776 24.3412 146.844 25.3647C147.913 26.3885 149.506 26.9 151.624 26.9L151.121 29.3038C151.08 29.5021 151.11 29.6662 151.211 29.7957C151.31 29.9248 151.46 29.9894 151.66 29.9894H152.978C153.178 29.9894 153.358 29.9247 153.518 29.7957C153.678 29.6662 153.777 29.5021 153.818 29.3038L154.321 26.9C156.838 26.9 158.856 26.2941 160.374 25.0814C161.892 23.8692 162.921 22.2295 163.46 20.1621C163.66 19.2877 163.81 18.6019 163.91 18.1049C163.97 17.7075 164 17.32 164 16.9422C164 15.2927 163.46 13.956 162.382 12.9322ZM152.104 24.664C149.307 24.664 147.909 23.4914 147.909 21.1458C147.909 20.7881 147.939 20.4005 147.998 19.9832C148.178 19.1482 148.308 18.5921 148.388 18.3136C149.207 15.1933 151.235 13.6328 154.471 13.6328L152.104 24.6638V24.664ZM161.243 18.3136C161.083 19.1088 160.953 19.6655 160.854 19.9832C160.034 23.1038 158.007 24.664 154.771 24.664L157.138 13.6329C159.935 13.6329 161.333 14.8059 161.333 17.1509C161.333 17.5087 161.303 17.8962 161.243 18.3138V18.3136ZM123.294 22.4842C122.075 22.4842 120.895 23.4664 120.657 24.6778C120.418 25.8892 121.212 26.8713 122.43 26.8713C123.649 26.8713 124.829 25.8892 125.067 24.6778C125.306 23.4664 124.511 22.4842 123.294 22.4842Z" fill="#43B02A"/>
<path d="M40.8667 14.7518C41.1482 15.5353 41.3776 16.4898 40.7868 17.0353C40.4215 17.3695 39.8031 17.4357 39.149 17.411C38.5429 17.3915 37.9035 17.289 37.4193 17.2438C37.0996 17.2247 36.8167 17.2688 36.6812 17.2799C36.2666 17.3156 35.5389 17.6429 35.1949 17.7963C34.7878 17.9862 34.4161 18.2027 34.0871 18.4711C33.4851 18.9463 32.9712 19.5343 32.4779 20.0978C31.7606 20.9093 31.0468 21.7013 30.2559 22.4509C28.4349 24.1751 25.84 24.9162 23.0782 24.8226C22.612 24.8088 22.1472 24.7669 21.6752 24.6996C20.5454 24.5628 18.4726 24.0704 17.1196 24.0248C16.8108 24.0122 16.5461 24.0231 16.328 24.0672C15.6169 24.1966 14.9342 24.3917 14.2599 24.5841C14.1233 24.6233 13.9782 24.6648 13.8467 24.7207C18.3865 29.7131 26.9027 32.3834 32.8166 28.0236C34.3495 26.8691 35.4857 25.3315 36.1347 23.547C36.2368 23.2606 36.3045 22.9839 36.3874 22.6936C36.5279 22.0287 37.0567 21.6203 37.7386 21.6463C37.9153 21.6507 38.1107 21.6868 38.307 21.7595L40.2243 22.4156C41.1971 22.7445 41.7655 23.6573 41.5882 24.5168L41.5482 24.6659C38.9999 37.2393 22.0131 37.7367 12.5473 31.2695C4.55373 25.842 1.45995 16.0614 4.87034 8.77972C7.52515 3.11131 13.8241 -0.134428 19.9784 0.00427142C27.7246 0.273012 35.9187 5.22949 39.7181 12.2129C40.1742 13.057 40.557 13.9033 40.8669 14.752L40.8667 14.7518ZM27.5913 19.1508C28.3522 16.9853 26.9982 14.3117 24.5204 13.1538C23.826 12.8285 23.1109 12.6559 22.4314 12.6386C20.7137 12.5777 19.2158 13.4376 18.6531 14.9765C17.8705 17.1301 19.2464 19.8154 21.7045 20.9699C22.3992 21.2953 23.114 21.4678 23.7936 21.4853C25.5221 21.5521 27.0288 20.6898 27.5913 19.1508ZM34.5459 10.9811C34.4345 10.8086 34.3179 10.6386 34.1967 10.4709C29.0825 3.40362 15.3786 0.779384 10.514 8.60783C8.47613 11.8877 8.75824 16.0243 9.30345 18.1945C9.38422 18.5153 9.47401 18.8158 9.60492 19.1202C9.74323 19.4405 9.8061 19.5497 9.5198 19.7542C8.91236 20.1874 8.30428 20.6399 7.75294 21.0961C7.32912 21.4468 6.94979 21.859 6.88547 22.371C6.79051 23.1258 7.42874 23.7321 8.41535 23.7818C11.3561 23.823 16.5977 23.0179 20.0117 22.6622C20.9046 22.5692 20.3768 22.5299 19.8322 22.1902C17.2769 20.5953 15.724 17.8034 15.9613 15.2026L15.9606 15.203C16.2395 12.0513 19.0339 10.1818 22.1901 10.29C25.0806 10.3901 28.1283 12.2363 29.3983 14.9013C29.8856 15.9233 30.1453 17.1498 29.9154 18.2726C29.8258 18.7106 29.7339 18.714 30.174 18.4435C30.2216 18.4141 30.2723 18.3832 30.3255 18.3505C31.9135 17.3775 36.0898 14.8676 37.5529 13.7862C38.136 13.3552 38.382 12.6558 38.098 12.1685C37.7809 11.6238 37.2414 11.5526 36.6725 11.5287C36.5566 11.5258 35.8747 11.5494 35.3838 11.5491C34.6974 11.5489 34.9191 11.5592 34.546 10.9811H34.5459Z" fill="#0762C8"/>
<path fill-rule="evenodd" clip-rule="evenodd" d="M17.4811 21.2496C16.5493 20.2516 15.8519 19.1364 15.4732 17.8475C15.1787 16.8451 15.3253 16.5964 14.5158 17.1622C13.2806 18.0252 12.2028 18.7869 10.9803 19.6681C10.0637 20.3287 9.12496 20.9753 8.25427 21.6952C8.04276 21.8702 7.69987 22.1774 7.66327 22.4676C7.61491 22.8524 8.15222 22.9844 8.44256 23.002C10.4704 23.0287 12.6964 22.7455 14.7127 22.5066C15.5244 22.4104 16.1136 22.335 16.9266 22.2343C18.4592 22.0448 18.3953 22.228 17.4813 21.2493L17.4811 21.2496Z" fill="#43B02A"/>
<path d="M0.017482 18.6228C0.0700364 17.3517 0.280416 16.0096 0.627179 14.7795C0.790968 14.1976 1.04681 14.2968 1.03713 14.7958C0.89269 22.0796 5.11042 29.1589 11.1613 33.2814C16.9319 37.2128 25.1248 38.8093 31.939 37.1313C31.958 37.1265 31.9773 37.1215 31.9964 37.117C32.4331 37.0102 32.4945 37.3874 32.1547 37.5971C31.9707 37.7106 31.7605 37.8344 31.5227 37.967C28.6501 39.5676 24.4546 40.2114 20.3346 39.9396C8.99397 39.191 -0.460022 30.1517 0.0173207 18.6228H0.017482Z" fill="#43B02A"/>
<path fill-rule="evenodd" clip-rule="evenodd" d="M30.528 16.0298C30.5779 16.2432 30.6099 16.4026 30.6366 16.6168C30.734 17.3926 30.7766 17.2513 31.5642 16.774C32.3121 16.3208 32.8442 16.0027 33.5848 15.5434C34.7604 14.8147 36.0288 14.0521 37.1387 13.2316C37.2986 13.1134 37.627 12.7377 37.4969 12.5145C37.3299 12.2275 36.9391 12.231 36.6556 12.2191C35.8253 12.1991 34.9748 12.2284 34.1447 12.2584C32.5815 12.315 31.0184 12.3922 29.4567 12.4779C28.5625 12.5267 28.6141 12.5987 29.0979 13.1655C29.7564 13.9368 30.2989 15.0507 30.528 16.0298Z" fill="#43B02A"/>
<path d="M26.6298 18.4429C26.9474 16.7525 25.7855 14.84 23.9671 14.1013C23.1394 13.7664 21.8132 13.679 20.7227 14.2421C20.2173 14.503 20.5909 14.5508 21.0714 14.516C23.8044 14.3184 26.191 16.77 25.4591 19.7446C25.4044 19.9663 25.2377 20.5436 25.6593 20.1494C26.1126 19.726 26.5298 18.9751 26.6299 18.4429H26.6298Z" fill="#43B02A"/>
</svg>
