<svg width="24" height="24" viewBox="0 0 24 24" fill="none" xmlns="http://www.w3.org/2000/svg">
<path d="M11.4032 12.2656C14.1933 12.2656 16.4701 9.99997 16.4701 7.20979C16.4701 4.40845 14.1933 2.14282 11.4032 2.14282C8.61298 2.14282 6.3362 4.40845 6.3362 7.20979C6.3362 9.99997 8.61298 12.2656 11.4032 12.2656ZM11.4032 4.70979C12.7759 4.70979 13.892 5.82586 13.892 7.20979C13.892 8.58255 12.7759 9.69863 11.4032 9.69863C10.0304 9.69863 8.91432 8.58255 8.91432 7.20979C8.91432 5.82586 10.0304 4.70979 11.4032 4.70979ZM17.2402 12.8794C16.95 12.3102 16.1576 11.8303 15.1085 12.6562C15.1085 12.6562 13.6911 13.7834 11.4032 13.7834C9.11522 13.7834 7.69781 12.6562 7.69781 12.6562C6.6487 11.8303 5.85629 12.3102 5.56611 12.8794C5.07504 13.8839 5.63307 14.3638 6.9054 15.1897C7.98798 15.8817 9.48352 16.1384 10.4433 16.2388L9.63977 17.0424C8.50138 18.1696 7.41879 19.2634 6.65986 20.0223C6.20227 20.4799 6.20227 21.2165 6.65986 21.6629L6.79379 21.808C7.24022 22.2544 7.97682 22.2544 8.43441 21.808L11.4143 18.8169C12.5527 19.9553 13.6465 21.0491 14.3942 21.808C14.8518 22.2544 15.5884 22.2544 16.046 21.808L16.1799 21.6629C16.6264 21.2165 16.6264 20.4799 16.1799 20.0223L13.2 17.0424L12.3853 16.2388C13.3563 16.1384 14.8295 15.8705 15.9009 15.1897C17.1733 14.3638 17.7313 13.8839 17.2402 12.8794Z" fill="#8F949A"/>
</svg>
