<svg width="24" height="24" viewBox="0 0 24 24" fill="none" xmlns="http://www.w3.org/2000/svg">
<path d="M22.6822 7.6607C22.6822 7.6607 22.5259 7.21428 21.555 7.33704L18.3407 7.35937C18.0951 7.32588 17.9166 7.42633 17.9166 7.42633C17.9166 7.42633 17.7268 7.52678 17.6376 7.77231C17.113 9.12276 16.4434 10.2835 16.4434 10.2835C15.0148 12.7165 14.4344 12.8504 14.2001 12.6942C13.6532 12.3482 13.7983 11.2879 13.7983 10.529C13.7983 8.16294 14.1554 7.18079 13.0951 6.9241C12.7492 6.84597 12.4925 6.79017 11.5884 6.77901C10.4389 6.76785 9.46791 6.77901 8.92103 7.04687C8.55273 7.22544 8.27371 7.62722 8.44112 7.64954C8.65318 7.68303 9.13309 7.78347 9.38978 8.12945C9.38978 8.12945 9.6688 8.58704 9.71345 9.59151C9.83621 12.3705 9.26702 12.7165 9.26702 12.7165C8.83175 12.9509 8.07282 12.5603 6.95675 10.2612C6.95675 10.2612 6.30943 9.12276 5.8072 7.87276C5.71791 7.63838 5.53934 7.51562 5.53934 7.51562C5.53934 7.51562 5.33845 7.35937 5.04827 7.31472L1.99023 7.33704C1.52148 7.33704 1.35407 7.5491 1.35407 7.5491C1.35407 7.5491 1.18666 7.72767 1.34291 8.09597C3.7313 13.7098 6.45452 16.5223 6.45452 16.5223C6.45452 16.5223 8.94336 19.1228 11.767 18.9442H13.0505C13.4411 18.9107 13.642 18.6987 13.642 18.6987C13.642 18.6987 13.8206 18.4978 13.8094 18.1295C13.7871 16.4107 14.5907 16.154 14.5907 16.154C15.3719 15.9085 16.3764 17.817 17.4478 18.5536C17.4478 18.5536 18.2626 19.1116 18.8764 18.9888L21.7335 18.9442C23.2402 18.933 22.5259 17.683 22.5259 17.683C22.4701 17.5826 22.113 16.8125 20.3942 15.2165C18.6085 13.5536 18.8429 13.8214 21.0081 10.942C22.3251 9.18972 22.8496 8.11829 22.6822 7.6607Z" fill="#8F949A"/>
</svg>
